M48
; DRILL file {KiCad (6.0.7)} date Thu Jan 12 19:18:58 2023
; FORMAT={-:-/ absolute / metric / decimal}
; #@! TF.CreationDate,2023-01-12T19:18:58+03:00
; #@! TF.GenerationSoftware,Kicad,Pcbnew,(6.0.7)
; #@! TF.FileFunction,MixedPlating,1,4
FMAT,2
METRIC
; #@! TA.AperFunction,Plated,PTH,ComponentDrill
T1C0.200
; #@! TA.AperFunction,Plated,PTH,ViaDrill
T2C0.400
; #@! TA.AperFunction,Plated,PTH,ComponentDrill
T3C0.500
; #@! TA.AperFunction,Plated,PTH,ComponentDrill
T4C0.900
; #@! TA.AperFunction,Plated,PTH,ComponentDrill
T5C1.000
; #@! TA.AperFunction,Plated,PTH,ComponentDrill
T6C1.400
; #@! TA.AperFunction,Plated,PTH,ComponentDrill
T7C3.500
%
G90
G05
T1
X108.725Y-94.787
X108.725Y-95.837
X108.725Y-96.887
X108.725Y-97.938
X109.8Y-94.787
X109.8Y-95.837
X109.8Y-96.887
X109.8Y-97.938
X110.875Y-94.787
X110.875Y-95.837
X110.875Y-96.887
X110.875Y-97.938
T2
X61.95Y-90.975
X61.95Y-100.475
X62.15Y-83.4
X62.15Y-109.775
X67.125Y-116.475
X68.0Y-96.575
X68.2Y-87.725
X68.2Y-107.825
X75.125Y-86.15
X75.125Y-119.125
X75.125Y-126.475
X75.275Y-93.5
X75.425Y-102.125
X75.425Y-111.075
X75.575Y-77.5
X83.5Y-102.5
X83.725Y-85.45
X83.725Y-94.075
X83.725Y-126.5
X83.95Y-111.15
X83.95Y-119.575
X84.15Y-77.65
X90.2Y-69.175
X90.225Y-72.65
X95.575Y-105.6
X95.65Y-101.625
X95.7Y-89.925
X95.775Y-93.3
X95.775Y-97.025
X95.825Y-85.575
X97.475Y-63.625
X97.85Y-91.125
X98.025Y-95.9
X98.35Y-100.725
X100.35Y-80.25
X102.475Y-80.325
X102.575Y-63.7
X104.375Y-102.775
X104.9Y-80.35
X105.825Y-93.1
X106.025Y-98.425
X106.625Y-101.45
X108.525Y-63.625
X109.55Y-73.825
X110.875Y-90.925
X112.85Y-100.55
X113.825Y-74.6
X113.975Y-77.325
X114.575Y-63.625
X117.475Y-77.325
X120.35Y-63.525
X121.45Y-100.725
X122.775Y-76.45
X123.925Y-98.7
X124.0Y-91.3
X124.025Y-94.0
X124.525Y-103.075
X125.75Y-98.7
X126.3Y-63.525
X138.925Y-50.925
X138.925Y-67.825
X139.025Y-55.05
X139.025Y-59.375
X139.025Y-63.6
T3
X60.775Y-52.6
X60.775Y-124.625
X61.544Y-50.744
X61.544Y-54.456
X61.544Y-122.769
X61.544Y-126.481
X63.4Y-49.975
X63.4Y-55.225
X63.4Y-122.0
X63.4Y-127.25
X65.256Y-50.744
X65.256Y-54.456
X65.256Y-122.769
X65.256Y-126.481
X66.025Y-52.6
X66.025Y-124.625
X241.65Y-124.675
X241.9Y-52.55
X242.419Y-122.819
X242.419Y-126.531
X242.669Y-50.694
X242.669Y-54.406
X244.275Y-122.05
X244.275Y-127.3
X244.525Y-49.925
X244.525Y-55.175
X246.131Y-122.819
X246.131Y-126.531
X246.381Y-50.694
X246.381Y-54.406
X246.9Y-124.675
X247.15Y-52.55
T4
X153.025Y-124.15
X155.565Y-124.15
T5
X222.75Y-83.35
X222.85Y-93.05
T6
X70.352Y-67.09
X70.352Y-74.71
T7
X63.4Y-52.6
X63.4Y-124.625
X244.275Y-124.675
X244.525Y-52.55
T0
M30
